<svg width="51" height="44" viewBox="0 0 51 44" fill="none" xmlns="http://www.w3.org/2000/svg">
<path d="M4.78125 34.375C16.1194 34.367 27.4083 35.6624 38.3499 38.2268C39.8948 38.5898 41.4375 37.5998 41.4375 36.2175V34.375M7.96875 8.25V9.625C7.96875 9.98967 7.80084 10.3394 7.50195 10.5973C7.20307 10.8551 6.79769 11 6.375 11H4.78125M4.78125 11V10.3125C4.78125 9.174 5.85225 8.25 7.17188 8.25H43.0312M4.78125 11V27.5M43.0312 8.25V9.625C43.0312 10.384 43.7452 11 44.625 11H46.2188M43.0312 8.25H43.8281C45.1477 8.25 46.2188 9.174 46.2188 10.3125V28.1875C46.2188 29.326 45.1477 30.25 43.8281 30.25H43.0312M4.78125 27.5V28.1875C4.78125 28.7345 5.03312 29.2591 5.48145 29.6459C5.92978 30.0327 6.53784 30.25 7.17188 30.25H7.96875M4.78125 27.5H6.375C6.79769 27.5 7.20307 27.6449 7.50195 27.9027C7.80084 28.1606 7.96875 28.5103 7.96875 28.875V30.25M43.0312 30.25V28.875C43.0312 28.5103 43.1992 28.1606 43.498 27.9027C43.7969 27.6449 44.2023 27.5 44.625 27.5H46.2188M43.0312 30.25H7.96875M31.875 19.25C31.875 20.7087 31.2034 22.1076 30.0078 23.1391C28.8123 24.1705 27.1908 24.75 25.5 24.75C23.8092 24.75 22.1877 24.1705 20.9922 23.1391C19.7966 22.1076 19.125 20.7087 19.125 19.25C19.125 17.7913 19.7966 16.3924 20.9922 15.3609C22.1877 14.3295 23.8092 13.75 25.5 13.75C27.1908 13.75 28.8123 14.3295 30.0078 15.3609C31.2034 16.3924 31.875 17.7913 31.875 19.25ZM38.25 19.25H38.267V19.2647H38.25V19.25ZM12.75 19.25H12.767V19.2647H12.75V19.25Z" stroke="white" stroke-width="2" stroke-linecap="round" stroke-linejoin="round"/>
</svg>
